<svg width="20" height="20" viewBox="0 0 20 20" fill="none" xmlns="http://www.w3.org/2000/svg">
<path fill-rule="evenodd" clip-rule="evenodd" d="M10.0001 0.666656C7.42175 0.666656 5.33342 2.75499 5.33342 5.33332C5.33342 7.91166 7.42175 9.99999 10.0001 9.99999C12.5784 9.99999 14.6667 7.91166 14.6667 5.33332C14.6667 2.75499 12.5784 0.666656 10.0001 0.666656ZM12.4501 5.33332C12.4501 3.97999 11.3534 2.88332 10.0001 2.88332C8.64675 2.88332 7.55008 3.97999 7.55008 5.33332C7.55008 6.68666 8.64675 7.78332 10.0001 7.78332C11.3534 7.78332 12.4501 6.68666 12.4501 5.33332ZM17.1167 15.8333C17.1167 15.0867 13.4651 13.3833 10.0001 13.3833C6.53508 13.3833 2.88341 15.0867 2.88341 15.8333V17.1167H17.1167V15.8333ZM0.666748 15.8333C0.666748 12.73 6.88508 11.1667 10.0001 11.1667C13.1151 11.1667 19.3334 12.73 19.3334 15.8333V19.3333H0.666748V15.8333Z" fill="#FAFAFA"/>
</svg>
