<svg width="28" height="28" viewBox="0 0 28 28" fill="none" xmlns="http://www.w3.org/2000/svg">
<path fill-rule="evenodd" clip-rule="evenodd" d="M22.395 13.96C21.9416 14.7867 21.0616 15.3333 20.0616 15.3333H10.1283L8.66162 18H24.6616V20.6667H8.66162C6.63495 20.6667 5.35495 18.4933 6.32829 16.7067L8.12829 13.4533L3.32829 3.33332H0.661621V0.666656H5.02162L6.27495 3.33332H26.0083C27.0216 3.33332 27.6616 4.42666 27.1683 5.30666L22.395 13.96ZM23.7416 5.99999H7.54162L10.7016 12.6667H20.0616L23.7416 5.99999ZM8.66162 22C7.19496 22 6.00829 23.2 6.00829 24.6667C6.00829 26.1333 7.19496 27.3333 8.66162 27.3333C10.1283 27.3333 11.3283 26.1333 11.3283 24.6667C11.3283 23.2 10.1283 22 8.66162 22ZM19.3416 24.6667C19.3416 23.2 20.5283 22 21.995 22C23.4616 22 24.6616 23.2 24.6616 24.6667C24.6616 26.1333 23.4616 27.3333 21.995 27.3333C20.5283 27.3333 19.3416 26.1333 19.3416 24.6667Z" fill="white"/>
</svg>
